<?xml version="1.0" encoding="utf-8"?>
<!-- Generator: Adobe Illustrator 25.4.1, SVG Export Plug-In . SVG Version: 6.00 Build 0)  -->
<svg version="1.1" id="Layer_1" xmlns="http://www.w3.org/2000/svg" xmlns:xlink="http://www.w3.org/1999/xlink" x="0px" y="0px"
	 viewBox="0 0 288 288" style="enable-background:new 0 0 288 288;" xml:space="preserve">
<style type="text/css">
	.st0{fill:#00599D;}
	.st1{fill:#00BF8A;}
	.st2{fill:#E28307;}
	.st3{fill:#8C0D8C;}
	.st4{fill:#353535;}
	.st5{fill:#FFFFFF;}
</style>
<g>
	<g>
		<path d="M82.19,135.18v-7.88h1.71v7.88H82.19z"/>
		<path d="M88.74,128.57c0.45,0,0.8,0.09,1.05,0.28c0.24,0.19,0.42,0.43,0.54,0.74c0.11,0.31,0.18,0.67,0.2,1.08
			c0.02,0.41,0.03,0.85,0.03,1.31v3.2h-1.64v-3.2c0-0.25-0.01-0.48-0.02-0.71c-0.01-0.22-0.04-0.42-0.08-0.58
			c-0.05-0.17-0.11-0.3-0.2-0.39c-0.09-0.1-0.21-0.15-0.37-0.15c-0.2,0-0.38,0.03-0.54,0.08c-0.17,0.05-0.31,0.14-0.43,0.27
			c-0.12,0.13-0.22,0.3-0.29,0.52c-0.07,0.22-0.11,0.5-0.11,0.84v3.32h-1.64v-6.53h1.49l0.12,0.87c0.17-0.31,0.41-0.54,0.72-0.71
			C87.85,128.65,88.25,128.57,88.74,128.57z"/>
		<path d="M95.28,128.56v1.55h-1.17v4.98l-1.64,0.7v-5.68h-1.17v-1.55h1.17v-1.37h1.64v1.37H95.28z"/>
		<path d="M101.7,133.9c-0.38,0.45-0.83,0.8-1.33,1.03c-0.5,0.23-1.01,0.35-1.52,0.35c-0.39,0-0.77-0.07-1.14-0.22
			c-0.36-0.14-0.69-0.36-0.97-0.64c-0.28-0.29-0.5-0.65-0.67-1.09c-0.17-0.44-0.25-0.96-0.25-1.55c0-0.55,0.09-1.03,0.27-1.43
			c0.18-0.41,0.42-0.74,0.71-1.01c0.29-0.27,0.62-0.47,0.98-0.6c0.36-0.13,0.74-0.2,1.11-0.2c0.35,0,0.68,0.05,1.01,0.16
			c0.33,0.11,0.62,0.28,0.87,0.5c0.25,0.22,0.45,0.5,0.61,0.82c0.15,0.32,0.23,0.7,0.23,1.13c0,0.07,0,0.14,0,0.21
			c0,0.07-0.01,0.14-0.02,0.22l-3.69,1.59c0.17,0.19,0.36,0.33,0.58,0.41c0.22,0.09,0.44,0.13,0.68,0.13c0.29,0,0.58-0.06,0.85-0.19
			c0.28-0.13,0.49-0.31,0.65-0.55L101.7,133.9z M97.47,131.86l2.41-1.04c0-0.23-0.1-0.42-0.29-0.55c-0.19-0.14-0.42-0.2-0.67-0.2
			c-0.17,0-0.34,0.03-0.51,0.1c-0.17,0.06-0.33,0.17-0.47,0.31c-0.14,0.14-0.25,0.32-0.34,0.54c-0.09,0.22-0.13,0.48-0.13,0.8
			V131.86z"/>
		<path d="M106.09,128.56v1.64h-0.41c-0.48,0-0.83,0.15-1.04,0.44s-0.32,0.66-0.32,1.1v3.45h-1.64v-6.53h1.49l0.1,0.66
			c0.14-0.22,0.32-0.4,0.54-0.54c0.23-0.14,0.51-0.21,0.86-0.21H106.09z"/>
		<path d="M110.42,128.57c0.45,0,0.8,0.09,1.05,0.28c0.24,0.19,0.42,0.43,0.54,0.74c0.11,0.31,0.18,0.67,0.2,1.08
			c0.02,0.41,0.03,0.85,0.03,1.31v3.2h-1.64v-3.2c0-0.25-0.01-0.48-0.02-0.71c-0.01-0.22-0.04-0.42-0.08-0.58
			c-0.05-0.17-0.11-0.3-0.2-0.39c-0.09-0.1-0.21-0.15-0.37-0.15c-0.2,0-0.38,0.03-0.54,0.08c-0.17,0.05-0.31,0.14-0.43,0.27
			c-0.12,0.13-0.22,0.3-0.29,0.52c-0.07,0.22-0.11,0.5-0.11,0.84v3.32h-1.64v-6.53h1.49l0.12,0.87c0.17-0.31,0.41-0.54,0.72-0.71
			C109.53,128.65,109.93,128.57,110.42,128.57z"/>
		<path d="M115.94,128.71c0.78,0,1.37,0.17,1.78,0.52c0.41,0.35,0.62,0.91,0.62,1.69v4.26h-1.49l-0.11-0.63
			c-0.23,0.26-0.5,0.45-0.81,0.58c-0.31,0.13-0.63,0.19-0.95,0.19c-0.24,0-0.47-0.04-0.69-0.11c-0.22-0.07-0.42-0.19-0.59-0.34
			c-0.17-0.15-0.31-0.34-0.41-0.57c-0.1-0.23-0.15-0.5-0.15-0.82c0-0.18,0.02-0.36,0.06-0.54c0.04-0.18,0.12-0.36,0.23-0.53
			c0.11-0.17,0.27-0.33,0.46-0.47c0.2-0.15,0.45-0.28,0.76-0.39l2.03-0.73c-0.05-0.22-0.15-0.39-0.29-0.53
			c-0.14-0.13-0.33-0.2-0.58-0.2h-2.09v-1.38H115.94z M116.71,132.18l-1.38,0.6c-0.11,0.05-0.19,0.12-0.26,0.22
			c-0.07,0.1-0.1,0.2-0.1,0.32c0,0.2,0.07,0.34,0.2,0.44c0.13,0.1,0.29,0.15,0.47,0.15c0.12,0,0.24-0.02,0.37-0.07
			c0.13-0.05,0.24-0.12,0.34-0.21c0.1-0.09,0.19-0.21,0.25-0.36c0.07-0.15,0.1-0.32,0.1-0.51V132.18z"/>
		<path d="M123.08,128.56v1.55h-1.17v4.98l-1.64,0.7v-5.68h-1.17v-1.55h1.17v-1.37h1.64v1.37H123.08z"/>
		<path d="M124.71,127.82c-0.14,0-0.28-0.03-0.41-0.08c-0.13-0.06-0.25-0.13-0.34-0.23c-0.1-0.09-0.17-0.21-0.23-0.34
			c-0.06-0.13-0.08-0.27-0.08-0.42c0-0.15,0.03-0.29,0.08-0.42c0.06-0.13,0.13-0.24,0.23-0.34c0.1-0.1,0.21-0.17,0.34-0.23
			c0.13-0.06,0.27-0.08,0.41-0.08c0.15,0,0.29,0.03,0.42,0.08c0.13,0.06,0.24,0.13,0.34,0.23c0.1,0.1,0.17,0.21,0.23,0.34
			c0.06,0.13,0.08,0.27,0.08,0.42c0,0.15-0.03,0.29-0.08,0.42c-0.06,0.13-0.13,0.25-0.23,0.34c-0.1,0.09-0.21,0.17-0.34,0.23
			C125,127.79,124.86,127.82,124.71,127.82z M123.9,135.18v-6.53h1.63v6.53H123.9z"/>
		<path d="M129.75,128.6c0.46,0,0.89,0.09,1.29,0.26c0.4,0.17,0.75,0.41,1.05,0.71c0.3,0.3,0.53,0.65,0.71,1.06
			c0.18,0.4,0.27,0.83,0.27,1.29s-0.09,0.89-0.26,1.29c-0.17,0.4-0.41,0.75-0.71,1.06c-0.3,0.3-0.65,0.54-1.06,0.71
			c-0.4,0.17-0.83,0.26-1.29,0.26c-0.46,0-0.89-0.09-1.29-0.26c-0.4-0.17-0.76-0.41-1.06-0.71c-0.3-0.3-0.54-0.65-0.71-1.06
			c-0.17-0.4-0.26-0.83-0.26-1.29s0.09-0.89,0.26-1.29c0.17-0.4,0.41-0.75,0.71-1.06c0.3-0.3,0.65-0.54,1.06-0.71
			C128.86,128.68,129.29,128.6,129.75,128.6z M129.75,133.53c0.23,0,0.44-0.04,0.63-0.12c0.2-0.08,0.37-0.2,0.51-0.34
			c0.15-0.15,0.26-0.32,0.34-0.51c0.08-0.2,0.12-0.41,0.12-0.63c0-0.23-0.04-0.44-0.13-0.63c-0.09-0.2-0.2-0.37-0.35-0.51
			c-0.15-0.15-0.32-0.26-0.51-0.34s-0.4-0.12-0.62-0.12c-0.22,0-0.43,0.04-0.62,0.13c-0.2,0.09-0.37,0.2-0.51,0.35
			c-0.15,0.15-0.26,0.32-0.35,0.51c-0.09,0.2-0.13,0.4-0.13,0.62c0,0.22,0.04,0.43,0.12,0.62c0.08,0.2,0.2,0.37,0.34,0.51
			c0.15,0.15,0.32,0.26,0.51,0.35C129.31,133.49,129.53,133.53,129.75,133.53z"/>
		<path d="M137.57,128.57c0.45,0,0.8,0.09,1.05,0.28c0.24,0.19,0.42,0.43,0.54,0.74c0.11,0.31,0.18,0.67,0.2,1.08
			c0.02,0.41,0.03,0.85,0.03,1.31v3.2h-1.64v-3.2c0-0.25-0.01-0.48-0.02-0.71c-0.01-0.22-0.04-0.42-0.08-0.58
			c-0.05-0.17-0.11-0.3-0.2-0.39c-0.09-0.1-0.21-0.15-0.37-0.15c-0.2,0-0.38,0.03-0.54,0.08c-0.17,0.05-0.31,0.14-0.43,0.27
			c-0.12,0.13-0.22,0.3-0.29,0.52c-0.07,0.22-0.11,0.5-0.11,0.84v3.32h-1.64v-6.53h1.49l0.12,0.87c0.17-0.31,0.41-0.54,0.72-0.71
			C136.68,128.65,137.08,128.57,137.57,128.57z"/>
		<path d="M143.09,128.71c0.78,0,1.37,0.17,1.78,0.52c0.41,0.35,0.62,0.91,0.62,1.69v4.26h-1.49l-0.11-0.63
			c-0.23,0.26-0.5,0.45-0.81,0.58c-0.31,0.13-0.63,0.19-0.95,0.19c-0.24,0-0.47-0.04-0.69-0.11c-0.22-0.07-0.42-0.19-0.59-0.34
			c-0.17-0.15-0.31-0.34-0.41-0.57c-0.1-0.23-0.15-0.5-0.15-0.82c0-0.18,0.02-0.36,0.06-0.54c0.04-0.18,0.12-0.36,0.23-0.53
			c0.11-0.17,0.27-0.33,0.46-0.47c0.2-0.15,0.45-0.28,0.76-0.39l2.03-0.73c-0.05-0.22-0.15-0.39-0.29-0.53
			c-0.14-0.13-0.33-0.2-0.58-0.2h-2.09v-1.38H143.09z M143.86,132.18l-1.38,0.6c-0.11,0.05-0.19,0.12-0.26,0.22
			c-0.07,0.1-0.1,0.2-0.1,0.32c0,0.2,0.07,0.34,0.2,0.44c0.13,0.1,0.29,0.15,0.47,0.15c0.12,0,0.24-0.02,0.37-0.07
			c0.13-0.05,0.24-0.12,0.34-0.21c0.1-0.09,0.19-0.21,0.25-0.36c0.07-0.15,0.1-0.32,0.1-0.51V132.18z"/>
		<path d="M146.72,135.18v-9.51h1.64v9.51H146.72z"/>
		<path d="M156.14,133.53c0.25,0,0.49-0.04,0.73-0.12c0.24-0.08,0.46-0.2,0.65-0.35l1.03,1.36c-0.36,0.28-0.75,0.48-1.16,0.62
			s-0.83,0.2-1.26,0.2c-0.55,0-1.07-0.11-1.55-0.32c-0.49-0.21-0.91-0.5-1.27-0.86s-0.65-0.78-0.86-1.27
			c-0.21-0.49-0.32-1-0.32-1.55c0-0.55,0.11-1.07,0.32-1.55c0.21-0.48,0.5-0.91,0.86-1.27c0.36-0.36,0.78-0.65,1.27-0.86
			c0.49-0.21,1-0.32,1.55-0.32c0.47,0,0.94,0.08,1.38,0.24c0.45,0.16,0.86,0.41,1.25,0.75l-1.12,1.28
			c-0.22-0.19-0.46-0.33-0.72-0.42c-0.26-0.09-0.53-0.14-0.8-0.14c-0.32,0-0.61,0.06-0.89,0.18c-0.28,0.12-0.52,0.28-0.73,0.49
			c-0.21,0.21-0.38,0.45-0.5,0.73c-0.12,0.28-0.18,0.58-0.18,0.89c0,0.32,0.06,0.61,0.18,0.89c0.12,0.28,0.28,0.52,0.49,0.73
			c0.21,0.21,0.45,0.37,0.73,0.5C155.52,133.47,155.82,133.53,156.14,133.53z"/>
		<path d="M164.79,133.9c-0.38,0.45-0.83,0.8-1.33,1.03c-0.5,0.23-1.01,0.35-1.52,0.35c-0.39,0-0.77-0.07-1.14-0.22
			s-0.69-0.36-0.97-0.64c-0.28-0.29-0.5-0.65-0.67-1.09c-0.17-0.44-0.25-0.96-0.25-1.55c0-0.55,0.09-1.03,0.27-1.43
			c0.18-0.41,0.42-0.74,0.71-1.01c0.29-0.27,0.62-0.47,0.98-0.6c0.36-0.13,0.74-0.2,1.11-0.2c0.35,0,0.68,0.05,1.01,0.16
			c0.33,0.11,0.62,0.28,0.87,0.5c0.25,0.22,0.45,0.5,0.61,0.82c0.15,0.32,0.23,0.7,0.23,1.13c0,0.07,0,0.14,0,0.21
			c0,0.07-0.01,0.14-0.02,0.22l-3.69,1.59c0.17,0.19,0.36,0.33,0.58,0.41c0.22,0.09,0.44,0.13,0.68,0.13c0.29,0,0.58-0.06,0.85-0.19
			c0.28-0.13,0.49-0.31,0.65-0.55L164.79,133.9z M160.56,131.86l2.41-1.04c0-0.23-0.1-0.42-0.29-0.55c-0.19-0.14-0.42-0.2-0.67-0.2
			c-0.17,0-0.34,0.03-0.51,0.1c-0.17,0.06-0.33,0.17-0.47,0.31c-0.14,0.14-0.25,0.32-0.34,0.54c-0.09,0.22-0.13,0.48-0.13,0.8
			V131.86z"/>
		<path d="M169.31,128.57c0.45,0,0.8,0.09,1.05,0.28c0.24,0.19,0.42,0.43,0.54,0.74c0.11,0.31,0.18,0.67,0.2,1.08
			c0.02,0.41,0.03,0.85,0.03,1.31v3.2h-1.64v-3.2c0-0.25-0.01-0.48-0.02-0.71c-0.01-0.22-0.04-0.42-0.08-0.58
			c-0.05-0.17-0.11-0.3-0.2-0.39c-0.09-0.1-0.21-0.15-0.37-0.15c-0.2,0-0.38,0.03-0.54,0.08c-0.17,0.05-0.31,0.14-0.43,0.27
			c-0.12,0.13-0.22,0.3-0.29,0.52c-0.07,0.22-0.11,0.5-0.11,0.84v3.32h-1.64v-6.53h1.49l0.12,0.87c0.17-0.31,0.41-0.54,0.72-0.71
			C168.42,128.65,168.82,128.57,169.31,128.57z"/>
		<path d="M175.85,128.56v1.55h-1.17v4.98l-1.64,0.7v-5.68h-1.17v-1.55h1.17v-1.37h1.64v1.37H175.85z"/>
		<path d="M180.07,128.56v1.64h-0.41c-0.48,0-0.83,0.15-1.04,0.44c-0.21,0.29-0.32,0.66-0.32,1.1v3.45h-1.64v-6.53h1.49l0.1,0.66
			c0.14-0.22,0.32-0.4,0.54-0.54c0.23-0.14,0.51-0.21,0.86-0.21H180.07z"/>
		<path d="M186.46,133.9c-0.38,0.45-0.83,0.8-1.33,1.03c-0.5,0.23-1.01,0.35-1.52,0.35c-0.39,0-0.77-0.07-1.14-0.22
			s-0.69-0.36-0.97-0.64c-0.28-0.29-0.5-0.65-0.67-1.09c-0.17-0.44-0.25-0.96-0.25-1.55c0-0.55,0.09-1.03,0.27-1.43
			c0.18-0.41,0.42-0.74,0.71-1.01c0.29-0.27,0.62-0.47,0.98-0.6c0.36-0.13,0.74-0.2,1.11-0.2c0.35,0,0.68,0.05,1.01,0.16
			c0.33,0.11,0.62,0.28,0.87,0.5c0.25,0.22,0.45,0.5,0.61,0.82c0.15,0.32,0.23,0.7,0.23,1.13c0,0.07,0,0.14,0,0.21
			c0,0.07-0.01,0.14-0.02,0.22l-3.69,1.59c0.17,0.19,0.36,0.33,0.58,0.41c0.22,0.09,0.44,0.13,0.68,0.13c0.29,0,0.58-0.06,0.85-0.19
			c0.28-0.13,0.49-0.31,0.65-0.55L186.46,133.9z M182.24,131.86l2.41-1.04c0-0.23-0.1-0.42-0.29-0.55c-0.19-0.14-0.42-0.2-0.67-0.2
			c-0.17,0-0.34,0.03-0.51,0.1c-0.17,0.06-0.33,0.17-0.47,0.31c-0.14,0.14-0.25,0.32-0.34,0.54c-0.09,0.22-0.13,0.48-0.13,0.8
			V131.86z"/>
		<path d="M192.02,128.88v1.5h2.35v1.55h-2.35v3.25h-1.71v-7.9h4.79v1.59H192.02z"/>
		<path d="M198.62,128.6c0.46,0,0.89,0.09,1.29,0.26c0.4,0.17,0.75,0.41,1.05,0.71c0.3,0.3,0.53,0.65,0.71,1.06
			c0.17,0.4,0.26,0.83,0.26,1.29s-0.09,0.89-0.26,1.29c-0.17,0.4-0.41,0.75-0.71,1.06c-0.3,0.3-0.65,0.54-1.06,0.71
			c-0.4,0.17-0.83,0.26-1.29,0.26s-0.89-0.09-1.29-0.26c-0.4-0.17-0.76-0.41-1.06-0.71c-0.3-0.3-0.54-0.65-0.71-1.06
			c-0.17-0.4-0.26-0.83-0.26-1.29s0.09-0.89,0.26-1.29c0.17-0.4,0.41-0.75,0.71-1.06c0.3-0.3,0.65-0.54,1.06-0.71
			C197.73,128.68,198.16,128.6,198.62,128.6z M198.62,133.53c0.23,0,0.44-0.04,0.63-0.12c0.2-0.08,0.37-0.2,0.51-0.34
			c0.15-0.15,0.26-0.32,0.34-0.51c0.08-0.2,0.12-0.41,0.12-0.63c0-0.23-0.04-0.44-0.13-0.63c-0.09-0.2-0.2-0.37-0.35-0.51
			c-0.15-0.15-0.32-0.26-0.51-0.34c-0.2-0.08-0.4-0.12-0.62-0.12c-0.22,0-0.43,0.04-0.62,0.13c-0.2,0.09-0.37,0.2-0.51,0.35
			c-0.15,0.15-0.26,0.32-0.35,0.51c-0.09,0.2-0.13,0.4-0.13,0.62c0,0.22,0.04,0.43,0.12,0.62c0.08,0.2,0.2,0.37,0.34,0.51
			s0.32,0.26,0.51,0.35C198.18,133.49,198.39,133.53,198.62,133.53z"/>
		<path d="M206.31,128.56v1.64h-0.41c-0.48,0-0.83,0.15-1.04,0.44s-0.32,0.66-0.32,1.1v3.45h-1.64v-6.53h1.49l0.1,0.66
			c0.14-0.22,0.32-0.4,0.54-0.54c0.23-0.14,0.51-0.21,0.86-0.21H206.31z"/>
		<path d="M88.48,148.73h-1.88l-0.37-0.94h-2.5l-0.35,0.94h-1.85l3.36-8.32L88.48,148.73z M85.61,146.24l-0.68-1.68l-0.62,1.68
			H85.61z"/>
		<path d="M92.45,142.12c0.77,0,1.39,0.29,1.85,0.86c0.47,0.58,0.7,1.44,0.7,2.59c0,0.52-0.07,0.98-0.21,1.38s-0.34,0.73-0.58,1.01
			c-0.25,0.27-0.53,0.47-0.85,0.61c-0.32,0.14-0.67,0.2-1.04,0.2c-0.29,0-0.56-0.05-0.83-0.16c-0.27-0.11-0.5-0.26-0.71-0.47v3.56
			h-1.64v-9.52h1.49l0.08,0.72C91.13,142.38,91.71,142.12,92.45,142.12z M92.07,147.26c0.16,0,0.31-0.03,0.47-0.1
			c0.15-0.07,0.29-0.17,0.42-0.32c0.12-0.14,0.22-0.32,0.3-0.53c0.08-0.21,0.11-0.46,0.11-0.73c0-0.29-0.03-0.54-0.1-0.77
			c-0.06-0.23-0.15-0.42-0.27-0.59c-0.12-0.17-0.25-0.29-0.41-0.38c-0.16-0.09-0.33-0.13-0.52-0.13c-0.17,0-0.33,0.03-0.48,0.1
			c-0.16,0.07-0.29,0.17-0.41,0.29c-0.12,0.13-0.22,0.28-0.29,0.46c-0.08,0.18-0.11,0.38-0.11,0.61v1.01c0,0.19,0.04,0.35,0.13,0.49
			c0.09,0.14,0.2,0.25,0.33,0.33c0.13,0.09,0.27,0.15,0.42,0.19C91.81,147.23,91.94,147.26,92.07,147.26z"/>
		<path d="M99.36,142.12c0.77,0,1.39,0.29,1.85,0.86c0.47,0.58,0.7,1.44,0.7,2.59c0,0.52-0.07,0.98-0.21,1.38
			c-0.14,0.4-0.34,0.73-0.58,1.01c-0.25,0.27-0.53,0.47-0.85,0.61c-0.32,0.14-0.67,0.2-1.04,0.2c-0.29,0-0.56-0.05-0.83-0.16
			c-0.27-0.11-0.5-0.26-0.71-0.47v3.56h-1.64v-9.52h1.49l0.08,0.72C98.04,142.38,98.62,142.12,99.36,142.12z M98.99,147.26
			c0.16,0,0.31-0.03,0.47-0.1c0.15-0.07,0.29-0.17,0.42-0.32s0.22-0.32,0.3-0.53c0.08-0.21,0.11-0.46,0.11-0.73
			c0-0.29-0.03-0.54-0.1-0.77c-0.06-0.23-0.15-0.42-0.27-0.59c-0.12-0.17-0.25-0.29-0.41-0.38c-0.16-0.09-0.33-0.13-0.52-0.13
			c-0.17,0-0.33,0.03-0.48,0.1c-0.16,0.07-0.29,0.17-0.41,0.29c-0.12,0.13-0.22,0.28-0.29,0.46c-0.08,0.18-0.11,0.38-0.11,0.61v1.01
			c0,0.19,0.04,0.35,0.13,0.49c0.09,0.14,0.2,0.25,0.33,0.33c0.13,0.09,0.27,0.15,0.42,0.19C98.72,147.23,98.86,147.26,98.99,147.26
			z"/>
		<path d="M102.96,148.73v-9.51h1.64v9.51H102.96z"/>
		<path d="M106.7,141.37c-0.14,0-0.28-0.03-0.41-0.08c-0.13-0.06-0.25-0.13-0.34-0.23c-0.1-0.09-0.17-0.21-0.23-0.34
			c-0.06-0.13-0.08-0.27-0.08-0.42c0-0.15,0.03-0.29,0.08-0.42c0.06-0.13,0.13-0.24,0.23-0.34c0.1-0.1,0.21-0.17,0.34-0.23
			c0.13-0.06,0.27-0.08,0.41-0.08c0.15,0,0.29,0.03,0.42,0.08c0.13,0.06,0.24,0.13,0.34,0.23c0.1,0.1,0.17,0.21,0.23,0.34
			c0.06,0.13,0.08,0.27,0.08,0.42c0,0.15-0.03,0.29-0.08,0.42c-0.06,0.13-0.13,0.25-0.23,0.34c-0.1,0.09-0.21,0.17-0.34,0.23
			C106.99,141.34,106.85,141.37,106.7,141.37z M105.89,148.73v-6.53h1.63v6.53H105.89z"/>
		<path d="M114.3,147.46c-0.38,0.45-0.83,0.8-1.33,1.03c-0.5,0.23-1.01,0.35-1.52,0.35c-0.39,0-0.77-0.07-1.14-0.22
			c-0.36-0.14-0.69-0.36-0.97-0.64s-0.5-0.65-0.67-1.09c-0.17-0.44-0.25-0.96-0.25-1.55c0-0.55,0.09-1.03,0.27-1.43
			c0.18-0.41,0.42-0.74,0.71-1.01c0.29-0.27,0.62-0.47,0.98-0.6c0.36-0.13,0.74-0.2,1.11-0.2c0.35,0,0.68,0.05,1.01,0.16
			c0.33,0.11,0.62,0.28,0.87,0.5c0.25,0.22,0.45,0.5,0.61,0.82c0.15,0.32,0.23,0.7,0.23,1.13c0,0.07,0,0.14,0,0.21
			c0,0.07-0.01,0.14-0.02,0.22l-3.69,1.59c0.17,0.19,0.36,0.33,0.58,0.41s0.44,0.13,0.68,0.13c0.29,0,0.58-0.06,0.85-0.19
			c0.28-0.13,0.49-0.31,0.65-0.55L114.3,147.46z M110.08,145.41l2.41-1.04c0-0.23-0.1-0.42-0.29-0.55c-0.19-0.14-0.42-0.2-0.67-0.2
			c-0.17,0-0.34,0.03-0.51,0.1c-0.17,0.06-0.33,0.17-0.47,0.31c-0.14,0.14-0.25,0.32-0.34,0.54c-0.09,0.22-0.13,0.48-0.13,0.8
			V145.41z"/>
		<path d="M120.92,139.22v9.51h-1.49l-0.07-0.72c-0.43,0.52-1.01,0.78-1.75,0.78c-0.77,0-1.39-0.29-1.85-0.86
			c-0.47-0.57-0.7-1.44-0.7-2.6c0-0.52,0.07-0.98,0.21-1.38c0.14-0.4,0.34-0.73,0.58-1c0.24-0.27,0.52-0.47,0.84-0.6
			c0.32-0.14,0.66-0.2,1.02-0.2c0.31,0,0.6,0.05,0.87,0.15c0.27,0.1,0.51,0.26,0.71,0.47v-3.55H120.92z M119.29,144.72
			c0-0.19-0.04-0.35-0.13-0.49c-0.09-0.14-0.2-0.25-0.33-0.33c-0.13-0.09-0.27-0.15-0.42-0.19c-0.15-0.04-0.29-0.06-0.42-0.06
			c-0.16,0-0.32,0.04-0.47,0.11c-0.16,0.07-0.3,0.18-0.42,0.32c-0.12,0.14-0.22,0.32-0.29,0.54c-0.08,0.22-0.11,0.47-0.11,0.77
			c0,0.27,0.03,0.52,0.1,0.74c0.06,0.22,0.15,0.41,0.27,0.57c0.12,0.16,0.25,0.28,0.41,0.37c0.16,0.09,0.33,0.13,0.52,0.13
			c0.17,0,0.33-0.03,0.48-0.1c0.15-0.07,0.29-0.17,0.41-0.29c0.12-0.13,0.22-0.28,0.29-0.46c0.08-0.18,0.11-0.38,0.11-0.61V144.72z"
			/>
		<path d="M127.09,143.02c0,0.15,0.09,0.28,0.27,0.38c0.18,0.1,0.4,0.2,0.67,0.3c0.27,0.1,0.56,0.21,0.86,0.33
			c0.31,0.12,0.6,0.28,0.86,0.46c0.27,0.19,0.49,0.42,0.67,0.71c0.18,0.28,0.27,0.64,0.27,1.07c0,0.3-0.07,0.6-0.2,0.9
			c-0.13,0.3-0.32,0.57-0.57,0.82c-0.25,0.25-0.56,0.44-0.93,0.6c-0.37,0.15-0.79,0.23-1.26,0.23c-0.63,0-1.2-0.14-1.73-0.41
			c-0.53-0.27-0.99-0.64-1.38-1.12l1.17-1.16c0.2,0.23,0.39,0.42,0.57,0.56c0.18,0.14,0.39,0.27,0.63,0.38
			c0.24,0.11,0.5,0.17,0.79,0.17c0.14,0,0.28-0.02,0.42-0.05c0.14-0.03,0.27-0.09,0.38-0.16c0.11-0.08,0.21-0.17,0.28-0.29
			c0.07-0.12,0.11-0.26,0.11-0.43c0-0.21-0.09-0.39-0.28-0.54c-0.19-0.15-0.43-0.28-0.71-0.41c-0.29-0.13-0.6-0.26-0.93-0.39
			c-0.33-0.13-0.64-0.29-0.93-0.46c-0.29-0.18-0.52-0.39-0.71-0.63c-0.19-0.24-0.28-0.53-0.28-0.88v-0.03c0-0.27,0.06-0.54,0.19-0.8
			c0.13-0.26,0.31-0.5,0.56-0.7c0.25-0.2,0.54-0.37,0.9-0.5c0.35-0.13,0.76-0.19,1.21-0.19c0.31,0,0.57,0.02,0.8,0.07
			c0.22,0.05,0.43,0.12,0.61,0.22c0.18,0.1,0.36,0.23,0.52,0.38c0.16,0.16,0.34,0.35,0.53,0.58l-1.29,1.02
			c-0.08-0.13-0.18-0.24-0.29-0.34c-0.1-0.08-0.22-0.16-0.36-0.23c-0.14-0.07-0.3-0.1-0.49-0.1c-0.14,0-0.27,0.02-0.38,0.07
			c-0.11,0.05-0.2,0.1-0.28,0.16s-0.14,0.14-0.18,0.21C127.11,142.88,127.09,142.95,127.09,143.02z"/>
		<path d="M135.17,142.12v1.55H134v4.98l-1.64,0.7v-5.68h-1.17v-1.55h1.17v-1.37H134v1.37H135.17z"/>
		<path d="M141.26,142.21v6.53h-1.5l-0.12-0.87c-0.17,0.31-0.41,0.54-0.71,0.71c-0.3,0.16-0.67,0.24-1.11,0.24
			c-0.47,0-0.84-0.09-1.1-0.28c-0.26-0.18-0.44-0.43-0.56-0.75c-0.12-0.31-0.19-0.67-0.2-1.08s-0.03-0.85-0.03-1.3v-3.21h1.64v3.72
			c0,0.19,0.01,0.36,0.02,0.53c0.01,0.16,0.04,0.3,0.07,0.42c0.04,0.12,0.09,0.21,0.17,0.28s0.18,0.1,0.31,0.1
			c0.2,0,0.38-0.03,0.56-0.08c0.18-0.05,0.33-0.14,0.47-0.27c0.14-0.13,0.25-0.3,0.33-0.52c0.08-0.22,0.12-0.5,0.12-0.84v-3.32
			H141.26z"/>
		<path d="M148.17,139.22v9.51h-1.49l-0.07-0.72c-0.43,0.52-1.01,0.78-1.75,0.78c-0.77,0-1.39-0.29-1.85-0.86
			c-0.47-0.57-0.7-1.44-0.7-2.6c0-0.52,0.07-0.98,0.21-1.38c0.14-0.4,0.34-0.73,0.58-1c0.24-0.27,0.52-0.47,0.84-0.6
			c0.32-0.14,0.66-0.2,1.02-0.2c0.31,0,0.6,0.05,0.87,0.15c0.27,0.1,0.51,0.26,0.71,0.47v-3.55H148.17z M146.55,144.72
			c0-0.19-0.04-0.35-0.13-0.49c-0.09-0.14-0.2-0.25-0.33-0.33c-0.13-0.09-0.27-0.15-0.42-0.19c-0.15-0.04-0.29-0.06-0.42-0.06
			c-0.16,0-0.32,0.04-0.47,0.11c-0.16,0.07-0.3,0.18-0.42,0.32c-0.12,0.14-0.22,0.32-0.29,0.54c-0.08,0.22-0.11,0.47-0.11,0.77
			c0,0.27,0.03,0.52,0.1,0.74c0.06,0.22,0.15,0.41,0.27,0.57c0.12,0.16,0.25,0.28,0.41,0.37c0.16,0.09,0.33,0.13,0.52,0.13
			c0.17,0,0.33-0.03,0.48-0.1c0.15-0.07,0.29-0.17,0.41-0.29c0.12-0.13,0.22-0.28,0.29-0.46c0.08-0.18,0.11-0.38,0.11-0.61V144.72z"
			/>
		<path d="M150.29,141.37c-0.14,0-0.28-0.03-0.41-0.08c-0.13-0.06-0.25-0.13-0.34-0.23c-0.1-0.09-0.17-0.21-0.23-0.34
			c-0.06-0.13-0.08-0.27-0.08-0.42c0-0.15,0.03-0.29,0.08-0.42c0.06-0.13,0.13-0.24,0.23-0.34c0.1-0.1,0.21-0.17,0.34-0.23
			c0.13-0.06,0.27-0.08,0.41-0.08c0.15,0,0.29,0.03,0.42,0.08c0.13,0.06,0.24,0.13,0.34,0.23c0.1,0.1,0.17,0.21,0.23,0.34
			c0.06,0.13,0.08,0.27,0.08,0.42c0,0.15-0.03,0.29-0.08,0.42c-0.06,0.13-0.13,0.25-0.23,0.34c-0.1,0.09-0.21,0.17-0.34,0.23
			C150.58,141.34,150.44,141.37,150.29,141.37z M149.47,148.73v-6.53h1.63v6.53H149.47z"/>
		<path d="M157.89,147.46c-0.38,0.45-0.83,0.8-1.33,1.03c-0.5,0.23-1.01,0.35-1.52,0.35c-0.39,0-0.77-0.07-1.14-0.22
			c-0.36-0.14-0.69-0.36-0.97-0.64s-0.5-0.65-0.67-1.09c-0.17-0.44-0.25-0.96-0.25-1.55c0-0.55,0.09-1.03,0.27-1.43
			c0.18-0.41,0.42-0.74,0.71-1.01c0.29-0.27,0.62-0.47,0.98-0.6c0.37-0.13,0.74-0.2,1.11-0.2c0.35,0,0.68,0.05,1.01,0.16
			c0.33,0.11,0.62,0.28,0.87,0.5c0.25,0.22,0.45,0.5,0.61,0.82c0.15,0.32,0.23,0.7,0.23,1.13c0,0.07,0,0.14,0,0.21
			c0,0.07-0.01,0.14-0.02,0.22l-3.69,1.59c0.17,0.19,0.36,0.33,0.58,0.41c0.22,0.09,0.44,0.13,0.68,0.13c0.29,0,0.58-0.06,0.85-0.19
			c0.28-0.13,0.49-0.31,0.65-0.55L157.89,147.46z M153.66,145.41l2.41-1.04c0-0.23-0.1-0.42-0.29-0.55c-0.19-0.14-0.42-0.2-0.67-0.2
			c-0.17,0-0.34,0.03-0.51,0.1c-0.17,0.06-0.33,0.17-0.47,0.31c-0.14,0.14-0.25,0.32-0.34,0.54c-0.09,0.22-0.13,0.48-0.13,0.8
			V145.41z"/>
		<path d="M161.14,144.08c0,0.1,0.06,0.19,0.17,0.27c0.12,0.08,0.26,0.17,0.44,0.27c0.18,0.1,0.37,0.21,0.58,0.33
			c0.21,0.12,0.4,0.26,0.58,0.43c0.18,0.17,0.32,0.36,0.44,0.59c0.12,0.23,0.18,0.5,0.18,0.81c0,0.19-0.03,0.4-0.1,0.64
			c-0.06,0.24-0.18,0.46-0.36,0.66c-0.18,0.2-0.42,0.38-0.74,0.51c-0.32,0.14-0.73,0.21-1.24,0.21c-0.56,0-1.07-0.13-1.51-0.39
			c-0.44-0.26-0.83-0.6-1.18-1.02l1.08-1.08c0.14,0.2,0.3,0.37,0.46,0.52c0.15,0.14,0.32,0.26,0.51,0.37
			c0.19,0.11,0.4,0.16,0.63,0.16c0.19,0,0.36-0.05,0.5-0.14c0.15-0.09,0.22-0.24,0.22-0.44c0-0.18-0.06-0.33-0.19-0.45
			c-0.13-0.12-0.29-0.23-0.49-0.34c-0.2-0.11-0.41-0.21-0.63-0.32c-0.23-0.1-0.44-0.23-0.63-0.37c-0.2-0.14-0.36-0.32-0.49-0.52
			c-0.13-0.2-0.19-0.46-0.19-0.76c0-0.2,0.03-0.4,0.1-0.62c0.07-0.22,0.18-0.42,0.34-0.61c0.16-0.19,0.38-0.34,0.65-0.47
			c0.27-0.12,0.61-0.19,1.03-0.19c0.33,0,0.62,0.04,0.88,0.12c0.26,0.08,0.48,0.17,0.67,0.29c0.19,0.11,0.34,0.24,0.47,0.37
			c0.12,0.13,0.22,0.25,0.28,0.36l-1.11,0.87c-0.07-0.09-0.15-0.17-0.24-0.25c-0.08-0.06-0.17-0.11-0.27-0.16
			c-0.11-0.05-0.23-0.07-0.36-0.07C161.3,143.65,161.14,143.8,161.14,144.08z"/>
		<path d="M173.75,148.73h-1.88l-0.37-0.94H169l-0.35,0.94h-1.85l3.36-8.32L173.75,148.73z M170.88,146.24l-0.68-1.68l-0.62,1.68
			H170.88z"/>
		<path d="M177.92,142.13c0.45,0,0.8,0.09,1.05,0.28c0.24,0.19,0.42,0.43,0.54,0.74c0.11,0.31,0.18,0.67,0.2,1.08
			c0.02,0.41,0.03,0.85,0.03,1.31v3.2h-1.64v-3.2c0-0.25-0.01-0.48-0.02-0.71c-0.01-0.22-0.04-0.42-0.08-0.58
			c-0.05-0.17-0.11-0.3-0.2-0.39c-0.09-0.1-0.21-0.15-0.37-0.15c-0.2,0-0.38,0.03-0.54,0.08c-0.17,0.05-0.31,0.14-0.43,0.27
			c-0.12,0.13-0.22,0.3-0.29,0.52c-0.07,0.22-0.11,0.5-0.11,0.84v3.32h-1.64v-6.53h1.49l0.12,0.87c0.17-0.31,0.41-0.54,0.72-0.71
			C177.04,142.21,177.43,142.13,177.92,142.13z"/>
		<path d="M186.58,139.22v9.51h-1.49l-0.07-0.72c-0.43,0.52-1.01,0.78-1.75,0.78c-0.77,0-1.39-0.29-1.85-0.86s-0.7-1.44-0.7-2.6
			c0-0.52,0.07-0.98,0.21-1.38c0.14-0.4,0.34-0.73,0.58-1c0.24-0.27,0.52-0.47,0.84-0.6c0.32-0.14,0.66-0.2,1.02-0.2
			c0.31,0,0.6,0.05,0.87,0.15c0.27,0.1,0.51,0.26,0.71,0.47v-3.55H186.58z M184.95,144.72c0-0.19-0.04-0.35-0.13-0.49
			c-0.09-0.14-0.2-0.25-0.33-0.33c-0.13-0.09-0.27-0.15-0.42-0.19c-0.15-0.04-0.29-0.06-0.42-0.06c-0.16,0-0.32,0.04-0.47,0.11
			c-0.16,0.07-0.3,0.18-0.42,0.32c-0.12,0.14-0.22,0.32-0.29,0.54c-0.08,0.22-0.11,0.47-0.11,0.77c0,0.27,0.03,0.52,0.1,0.74
			c0.06,0.22,0.15,0.41,0.27,0.57c0.12,0.16,0.25,0.28,0.41,0.37c0.16,0.09,0.33,0.13,0.52,0.13c0.17,0,0.33-0.03,0.48-0.1
			c0.15-0.07,0.29-0.17,0.41-0.29c0.12-0.13,0.22-0.28,0.29-0.46c0.08-0.18,0.11-0.38,0.11-0.61V144.72z"/>
		<path d="M196.53,148.73h-2.03l-1.64-2.81h-0.43v2.81h-1.69l-0.02-7.9h2.88c0.28,0,0.58,0.05,0.9,0.14
			c0.32,0.09,0.62,0.24,0.9,0.44c0.28,0.2,0.5,0.47,0.69,0.79c0.18,0.32,0.28,0.72,0.28,1.19c0,0.35-0.05,0.65-0.15,0.91
			c-0.1,0.26-0.23,0.49-0.39,0.69c-0.16,0.2-0.35,0.36-0.56,0.48c-0.21,0.13-0.43,0.23-0.64,0.29L196.53,148.73z M193.75,144.22
			c0.11,0,0.21-0.02,0.32-0.05c0.11-0.03,0.21-0.08,0.29-0.14c0.09-0.06,0.16-0.15,0.22-0.25c0.06-0.1,0.08-0.22,0.08-0.36
			c0-0.14-0.03-0.27-0.09-0.38c-0.06-0.11-0.14-0.21-0.24-0.28c-0.1-0.07-0.22-0.13-0.34-0.17c-0.13-0.04-0.26-0.06-0.4-0.06h-1.17
			l0.01,1.68H193.75z"/>
		<path d="M203.03,147.46c-0.38,0.45-0.83,0.8-1.33,1.03c-0.5,0.23-1.01,0.35-1.52,0.35c-0.39,0-0.77-0.07-1.14-0.22
			c-0.36-0.14-0.69-0.36-0.97-0.64s-0.5-0.65-0.67-1.09c-0.17-0.44-0.25-0.96-0.25-1.55c0-0.55,0.09-1.03,0.27-1.43
			c0.18-0.41,0.42-0.74,0.71-1.01c0.29-0.27,0.62-0.47,0.98-0.6c0.36-0.13,0.74-0.2,1.11-0.2c0.35,0,0.68,0.05,1.01,0.16
			c0.33,0.11,0.62,0.28,0.87,0.5c0.25,0.22,0.46,0.5,0.61,0.82c0.15,0.32,0.23,0.7,0.23,1.13c0,0.07,0,0.14,0,0.21
			c0,0.07-0.01,0.14-0.02,0.22l-3.69,1.59c0.17,0.19,0.36,0.33,0.58,0.41c0.22,0.09,0.44,0.13,0.68,0.13c0.29,0,0.58-0.06,0.85-0.19
			c0.28-0.13,0.49-0.31,0.65-0.55L203.03,147.46z M198.81,145.41l2.4-1.04c0-0.23-0.1-0.42-0.29-0.55c-0.19-0.14-0.41-0.2-0.67-0.2
			c-0.17,0-0.34,0.03-0.51,0.1c-0.17,0.06-0.33,0.17-0.47,0.31c-0.14,0.14-0.25,0.32-0.34,0.54c-0.09,0.22-0.13,0.48-0.13,0.8
			V145.41z"/>
		<path d="M206.29,144.08c0,0.1,0.06,0.19,0.17,0.27c0.12,0.08,0.26,0.17,0.44,0.27c0.18,0.1,0.37,0.21,0.58,0.33
			c0.21,0.12,0.4,0.26,0.58,0.43c0.18,0.17,0.32,0.36,0.44,0.59c0.12,0.23,0.17,0.5,0.17,0.81c0,0.19-0.03,0.4-0.1,0.64
			c-0.07,0.24-0.19,0.46-0.36,0.66c-0.18,0.2-0.42,0.38-0.74,0.51c-0.32,0.14-0.73,0.21-1.24,0.21c-0.57,0-1.07-0.13-1.51-0.39
			c-0.44-0.26-0.83-0.6-1.18-1.02l1.08-1.08c0.14,0.2,0.3,0.37,0.46,0.52c0.15,0.14,0.32,0.26,0.51,0.37
			c0.19,0.11,0.4,0.16,0.63,0.16c0.19,0,0.36-0.05,0.5-0.14c0.15-0.09,0.22-0.24,0.22-0.44c0-0.18-0.07-0.33-0.19-0.45
			c-0.13-0.12-0.29-0.23-0.49-0.34c-0.2-0.11-0.41-0.21-0.63-0.32c-0.23-0.1-0.44-0.23-0.63-0.37c-0.2-0.14-0.36-0.32-0.48-0.52
			c-0.13-0.2-0.19-0.46-0.19-0.76c0-0.2,0.03-0.4,0.1-0.62c0.07-0.22,0.18-0.42,0.34-0.61c0.16-0.19,0.38-0.34,0.65-0.47
			s0.61-0.19,1.03-0.19c0.33,0,0.63,0.04,0.88,0.12c0.26,0.08,0.48,0.17,0.67,0.29c0.19,0.11,0.34,0.24,0.47,0.37
			c0.13,0.13,0.22,0.25,0.28,0.36l-1.11,0.87c-0.07-0.09-0.15-0.17-0.24-0.25c-0.08-0.06-0.17-0.11-0.27-0.16
			c-0.1-0.05-0.22-0.07-0.36-0.07C206.45,143.65,206.29,143.8,206.29,144.08z"/>
		<path d="M215.33,147.46c-0.38,0.45-0.83,0.8-1.33,1.03c-0.5,0.23-1.01,0.35-1.52,0.35c-0.39,0-0.77-0.07-1.13-0.22
			c-0.36-0.14-0.69-0.36-0.97-0.64c-0.28-0.29-0.5-0.65-0.66-1.09c-0.17-0.44-0.25-0.96-0.25-1.55c0-0.55,0.09-1.03,0.27-1.43
			c0.18-0.41,0.41-0.74,0.71-1.01c0.29-0.27,0.62-0.47,0.98-0.6c0.36-0.13,0.74-0.2,1.11-0.2c0.35,0,0.68,0.05,1.01,0.16
			c0.33,0.11,0.62,0.28,0.87,0.5c0.25,0.22,0.46,0.5,0.61,0.82c0.15,0.32,0.23,0.7,0.23,1.13c0,0.07,0,0.14,0,0.21
			c0,0.07-0.01,0.14-0.02,0.22l-3.69,1.59c0.17,0.19,0.36,0.33,0.58,0.41c0.22,0.09,0.45,0.13,0.68,0.13c0.29,0,0.58-0.06,0.85-0.19
			c0.27-0.13,0.49-0.31,0.65-0.55L215.33,147.46z M211.11,145.41l2.41-1.04c0-0.23-0.1-0.42-0.29-0.55c-0.19-0.14-0.42-0.2-0.67-0.2
			c-0.17,0-0.34,0.03-0.51,0.1c-0.17,0.06-0.33,0.17-0.47,0.31c-0.14,0.14-0.25,0.32-0.34,0.54c-0.09,0.22-0.13,0.48-0.13,0.8
			V145.41z"/>
		<path d="M218.82,142.26c0.78,0,1.37,0.17,1.79,0.52c0.41,0.35,0.62,0.91,0.62,1.69v4.26h-1.49l-0.11-0.63
			c-0.22,0.26-0.5,0.45-0.81,0.58c-0.31,0.13-0.63,0.19-0.95,0.19c-0.24,0-0.47-0.04-0.69-0.11c-0.22-0.07-0.42-0.19-0.59-0.34
			c-0.17-0.15-0.31-0.34-0.41-0.57s-0.15-0.5-0.15-0.82c0-0.18,0.02-0.36,0.06-0.54c0.04-0.18,0.12-0.36,0.23-0.53
			c0.11-0.17,0.27-0.33,0.46-0.47c0.2-0.15,0.45-0.28,0.76-0.39l2.03-0.73c-0.05-0.22-0.15-0.39-0.29-0.53
			c-0.14-0.13-0.33-0.2-0.58-0.2h-2.09v-1.38H218.82z M219.59,145.73l-1.38,0.6c-0.1,0.05-0.19,0.12-0.26,0.22
			c-0.07,0.1-0.1,0.2-0.1,0.32c0,0.2,0.07,0.34,0.2,0.44c0.13,0.1,0.29,0.15,0.47,0.15c0.12,0,0.25-0.02,0.37-0.07
			c0.13-0.05,0.24-0.12,0.34-0.21c0.1-0.09,0.19-0.21,0.25-0.36c0.07-0.15,0.1-0.32,0.1-0.51V145.73z"/>
		<path d="M225.85,142.12v1.64h-0.41c-0.48,0-0.83,0.15-1.04,0.44s-0.32,0.66-0.32,1.1v3.45h-1.64v-6.53h1.49l0.1,0.66
			c0.14-0.22,0.32-0.4,0.54-0.54c0.23-0.14,0.51-0.21,0.86-0.21H225.85z"/>
		<path d="M228.02,145.33c0,0.23,0.03,0.46,0.09,0.69s0.14,0.43,0.25,0.61c0.11,0.18,0.26,0.33,0.43,0.44
			c0.17,0.11,0.38,0.16,0.61,0.16c0.26,0,0.49-0.06,0.7-0.19c0.21-0.12,0.37-0.29,0.48-0.49l1.4,0.9c-0.53,0.92-1.42,1.38-2.65,1.38
			c-0.38,0-0.75-0.07-1.11-0.22c-0.35-0.15-0.67-0.37-0.94-0.66c-0.27-0.29-0.49-0.65-0.65-1.09c-0.16-0.44-0.24-0.95-0.24-1.54
			c0-0.53,0.08-1,0.25-1.41c0.16-0.4,0.39-0.74,0.66-1.01c0.27-0.27,0.59-0.47,0.94-0.61c0.35-0.14,0.72-0.2,1.11-0.2
			c0.29,0,0.57,0.04,0.85,0.12s0.55,0.2,0.79,0.37c0.24,0.17,0.46,0.37,0.65,0.63c0.19,0.25,0.33,0.55,0.43,0.9
			c-0.26,0.06-0.52,0.13-0.77,0.22c-0.25,0.08-0.47,0.15-0.68,0.2c-0.08-0.17-0.16-0.32-0.27-0.43c-0.1-0.11-0.21-0.2-0.32-0.28
			c-0.11-0.07-0.23-0.12-0.35-0.15c-0.12-0.03-0.23-0.05-0.34-0.05c-0.17,0-0.34,0.04-0.5,0.11c-0.16,0.07-0.3,0.18-0.42,0.32
			c-0.12,0.14-0.22,0.32-0.29,0.53C228.05,144.8,228.02,145.05,228.02,145.33z"/>
		<path d="M236.48,142.12c0.45,0,0.8,0.09,1.05,0.28c0.25,0.18,0.42,0.43,0.54,0.74c0.11,0.31,0.18,0.67,0.2,1.08
			c0.02,0.41,0.03,0.85,0.03,1.31v3.21h-1.64v-3.66c0-0.2,0-0.38-0.01-0.55c-0.01-0.17-0.03-0.32-0.07-0.44
			c-0.04-0.12-0.09-0.22-0.17-0.29c-0.08-0.07-0.18-0.11-0.32-0.11c-0.2,0-0.39,0.03-0.57,0.08c-0.18,0.05-0.34,0.14-0.47,0.27
			c-0.14,0.13-0.25,0.3-0.33,0.53c-0.08,0.22-0.13,0.5-0.13,0.84v3.33h-1.64v-9.44h1.64v3.74c0.17-0.29,0.41-0.52,0.72-0.68
			C235.61,142.19,236,142.12,236.48,142.12z"/>
	</g>
	<g>
		<path class="st0" d="M55.57,134.49v23.4h-2.92v-23.4h3.12 M58.49,131.56h-8.78v29.25h8.78V131.56z"/>
		<path class="st1" d="M61.42,128.64v23.4h-2.92v-23.4h3.12 M64.34,125.71h-8.78v29.25h8.78V125.71z"/>
		<path class="st2" d="M73.12,130.1v23.4h-2.92v-23.4h3.12 M76.04,127.17h-8.78v29.25h8.78V127.17z"/>
		<path class="st3" d="M67.27,136v23.4h-2.92V136h3.12 M70.19,133.08h-8.78v29.25h8.78V133.08z"/>
	</g>
	<g>
		<path class="st4" d="M84.85,156.48c-0.07-0.08-0.15-0.15-0.25-0.22s-0.2-0.12-0.32-0.17c-0.12-0.05-0.24-0.08-0.38-0.11
			c-0.13-0.03-0.28-0.04-0.43-0.04c-0.44,0-0.76,0.08-0.96,0.25c-0.2,0.17-0.31,0.39-0.31,0.68c0,0.2,0.05,0.35,0.14,0.46
			c0.1,0.11,0.25,0.2,0.45,0.27c0.21,0.07,0.47,0.14,0.79,0.22c0.36,0.08,0.66,0.16,0.92,0.27c0.26,0.1,0.46,0.24,0.6,0.42
			c0.14,0.18,0.21,0.41,0.21,0.71c0,0.23-0.04,0.43-0.13,0.6c-0.09,0.17-0.21,0.31-0.37,0.42c-0.16,0.11-0.35,0.19-0.57,0.25
			c-0.22,0.05-0.46,0.08-0.72,0.08c-0.26,0-0.51-0.03-0.74-0.08c-0.24-0.05-0.46-0.13-0.67-0.24c-0.21-0.11-0.41-0.24-0.59-0.4
			l0.25-0.4c0.09,0.09,0.2,0.18,0.32,0.26c0.12,0.08,0.26,0.16,0.41,0.22c0.15,0.07,0.32,0.12,0.49,0.15
			c0.18,0.04,0.36,0.05,0.54,0.05c0.4,0,0.71-0.07,0.93-0.22c0.22-0.15,0.33-0.36,0.33-0.65c0-0.21-0.06-0.37-0.17-0.49
			c-0.11-0.12-0.28-0.23-0.51-0.31c-0.23-0.08-0.5-0.16-0.83-0.23c-0.35-0.08-0.64-0.17-0.88-0.27c-0.24-0.1-0.42-0.23-0.54-0.39
			c-0.12-0.16-0.18-0.38-0.18-0.64c0-0.31,0.08-0.57,0.23-0.78c0.15-0.21,0.36-0.37,0.63-0.48c0.27-0.11,0.57-0.17,0.92-0.17
			c0.22,0,0.43,0.02,0.62,0.07c0.19,0.05,0.37,0.11,0.53,0.19c0.16,0.08,0.31,0.19,0.45,0.32L84.85,156.48z"/>
		<path class="st4" d="M89.19,160.54h-0.48v-2.03c0-0.41-0.07-0.72-0.22-0.93c-0.15-0.21-0.35-0.31-0.63-0.31
			c-0.18,0-0.35,0.05-0.53,0.14c-0.18,0.09-0.33,0.21-0.46,0.37c-0.13,0.15-0.23,0.33-0.28,0.53v2.23h-0.48v-5.13h0.48v2.32
			c0.15-0.27,0.35-0.49,0.61-0.65c0.26-0.16,0.54-0.24,0.83-0.24c0.21,0,0.39,0.04,0.54,0.11c0.15,0.07,0.27,0.18,0.36,0.32
			c0.09,0.14,0.16,0.31,0.2,0.5c0.04,0.19,0.06,0.4,0.06,0.64V160.54z"/>
		<path class="st4" d="M89.91,159.49c0-0.23,0.07-0.42,0.2-0.59c0.13-0.16,0.31-0.29,0.55-0.38c0.23-0.09,0.5-0.14,0.8-0.14
			c0.18,0,0.36,0.02,0.56,0.04c0.19,0.03,0.36,0.07,0.51,0.13v-0.31c0-0.31-0.09-0.55-0.27-0.73c-0.18-0.18-0.44-0.27-0.76-0.27
			c-0.2,0-0.39,0.04-0.58,0.11c-0.19,0.07-0.39,0.18-0.59,0.32l-0.18-0.34c0.24-0.16,0.47-0.29,0.7-0.37
			c0.23-0.08,0.46-0.12,0.7-0.12c0.45,0,0.81,0.13,1.07,0.39c0.26,0.26,0.39,0.61,0.39,1.06v1.68c0,0.07,0.01,0.11,0.04,0.14
			c0.03,0.03,0.07,0.05,0.13,0.05v0.38c-0.05,0-0.1,0.01-0.13,0.01c-0.04,0.01-0.07,0.01-0.08,0c-0.12,0-0.21-0.04-0.27-0.11
			c-0.06-0.07-0.09-0.15-0.1-0.22l-0.01-0.27c-0.16,0.21-0.38,0.37-0.64,0.49c-0.26,0.11-0.53,0.17-0.8,0.17
			c-0.23,0-0.45-0.05-0.64-0.15c-0.19-0.1-0.34-0.24-0.44-0.41C89.96,159.88,89.91,159.69,89.91,159.49z M92.36,159.77
			c0.05-0.07,0.09-0.13,0.12-0.19c0.03-0.06,0.04-0.11,0.04-0.16v-0.53c-0.16-0.06-0.32-0.11-0.5-0.14
			c-0.17-0.03-0.34-0.05-0.52-0.05c-0.34,0-0.62,0.07-0.83,0.2c-0.21,0.13-0.32,0.32-0.32,0.55c0,0.13,0.03,0.26,0.11,0.38
			c0.07,0.12,0.17,0.22,0.31,0.29c0.14,0.08,0.3,0.11,0.48,0.11c0.23,0,0.44-0.04,0.64-0.13C92.1,160.02,92.26,159.91,92.36,159.77z
			"/>
		<path class="st4" d="M95.91,160.61c-0.3,0-0.58-0.08-0.82-0.24c-0.24-0.16-0.43-0.35-0.57-0.59v2.25h-0.48v-5.15h0.43v0.71
			c0.15-0.23,0.34-0.41,0.58-0.56c0.24-0.14,0.5-0.21,0.78-0.21c0.25,0,0.49,0.05,0.7,0.16c0.21,0.11,0.39,0.25,0.55,0.42
			s0.28,0.38,0.36,0.6c0.09,0.23,0.13,0.46,0.13,0.7c0,0.34-0.07,0.65-0.21,0.94c-0.14,0.29-0.33,0.52-0.58,0.69
			C96.53,160.52,96.24,160.61,95.91,160.61z M95.77,160.19c0.2,0,0.38-0.04,0.54-0.12c0.16-0.08,0.3-0.19,0.41-0.33
			c0.12-0.14,0.2-0.3,0.26-0.47c0.06-0.17,0.09-0.35,0.09-0.54c0-0.19-0.03-0.38-0.1-0.56c-0.07-0.18-0.17-0.33-0.29-0.47
			c-0.13-0.13-0.27-0.24-0.44-0.32c-0.16-0.08-0.34-0.12-0.53-0.12c-0.12,0-0.25,0.02-0.38,0.07c-0.13,0.05-0.26,0.11-0.38,0.2
			c-0.12,0.09-0.22,0.18-0.3,0.29c-0.08,0.11-0.13,0.22-0.15,0.34v1.12c0.07,0.17,0.18,0.33,0.3,0.46c0.13,0.14,0.27,0.25,0.44,0.33
			C95.42,160.15,95.6,160.19,95.77,160.19z"/>
		<path class="st4" d="M98.38,156.11v-0.7h0.48v0.7H98.38z M98.38,160.54v-3.66h0.48v3.66H98.38z"/>
		<path class="st4" d="M102.99,160.54h-0.48v-2.03c0-0.43-0.06-0.74-0.19-0.94c-0.13-0.2-0.33-0.3-0.6-0.3
			c-0.19,0-0.37,0.05-0.56,0.14c-0.18,0.09-0.34,0.21-0.48,0.37c-0.14,0.15-0.24,0.33-0.3,0.53v2.23h-0.48v-3.65h0.44v0.83
			c0.1-0.18,0.23-0.33,0.39-0.46c0.16-0.13,0.34-0.24,0.54-0.31s0.41-0.11,0.63-0.11c0.2,0,0.37,0.04,0.51,0.11s0.25,0.18,0.34,0.32
			c0.08,0.14,0.15,0.3,0.18,0.5c0.04,0.19,0.06,0.41,0.06,0.65V160.54z"/>
		<path class="st4" d="M105.48,160.61c-0.25,0-0.48-0.05-0.69-0.15c-0.21-0.1-0.39-0.24-0.54-0.42c-0.15-0.18-0.27-0.38-0.36-0.6
			c-0.08-0.22-0.13-0.46-0.13-0.7c0-0.26,0.04-0.5,0.12-0.73c0.08-0.23,0.2-0.43,0.35-0.61c0.15-0.18,0.33-0.32,0.54-0.42
			c0.21-0.1,0.44-0.15,0.69-0.15c0.31,0,0.59,0.08,0.82,0.24c0.23,0.16,0.43,0.35,0.59,0.59v-0.77h0.43v3.67
			c0,0.34-0.08,0.62-0.24,0.85s-0.38,0.41-0.65,0.52c-0.27,0.12-0.57,0.18-0.9,0.18c-0.42,0-0.75-0.08-1.01-0.23
			c-0.26-0.15-0.47-0.35-0.63-0.6l0.3-0.23c0.15,0.23,0.34,0.4,0.58,0.51c0.24,0.11,0.5,0.17,0.77,0.17c0.24,0,0.46-0.04,0.66-0.13
			c0.2-0.08,0.36-0.21,0.48-0.38c0.12-0.17,0.18-0.39,0.18-0.64v-0.72c-0.14,0.23-0.33,0.41-0.58,0.55
			C106,160.54,105.75,160.61,105.48,160.61z M105.61,160.21c0.15,0,0.29-0.03,0.42-0.08c0.13-0.05,0.26-0.12,0.37-0.21
			c0.11-0.09,0.21-0.18,0.28-0.29c0.08-0.11,0.12-0.22,0.14-0.33v-1.13c-0.07-0.18-0.17-0.34-0.3-0.47
			c-0.13-0.14-0.28-0.25-0.45-0.32c-0.17-0.08-0.34-0.12-0.52-0.12c-0.21,0-0.39,0.04-0.55,0.13s-0.3,0.2-0.41,0.35
			c-0.11,0.14-0.2,0.3-0.26,0.48c-0.06,0.18-0.09,0.36-0.09,0.53c0,0.2,0.03,0.38,0.11,0.56c0.07,0.18,0.17,0.33,0.29,0.47
			c0.12,0.14,0.27,0.25,0.44,0.32C105.25,160.17,105.43,160.21,105.61,160.21z"/>
		<path class="st4" d="M112.25,160.57c-0.33,0-0.64-0.07-0.93-0.22c-0.29-0.14-0.53-0.34-0.75-0.58c-0.21-0.24-0.37-0.52-0.49-0.82
			c-0.12-0.3-0.17-0.61-0.17-0.93c0-0.34,0.06-0.66,0.17-0.96c0.11-0.3,0.28-0.57,0.48-0.8c0.21-0.23,0.45-0.42,0.73-0.56
			c0.28-0.14,0.59-0.2,0.92-0.2c0.49,0,0.89,0.1,1.2,0.3c0.31,0.2,0.54,0.46,0.7,0.79l-0.38,0.25c-0.16-0.31-0.37-0.54-0.64-0.68
			c-0.27-0.15-0.56-0.22-0.89-0.22c-0.28,0-0.53,0.06-0.75,0.18c-0.22,0.12-0.41,0.27-0.57,0.47c-0.16,0.2-0.28,0.42-0.36,0.67
			c-0.08,0.25-0.12,0.51-0.12,0.77c0,0.28,0.05,0.55,0.14,0.8s0.23,0.47,0.4,0.67c0.17,0.19,0.37,0.35,0.6,0.46
			c0.23,0.11,0.47,0.16,0.73,0.16c0.3,0,0.59-0.08,0.87-0.23c0.27-0.15,0.53-0.39,0.78-0.71v0.52
			C113.46,160.29,112.9,160.57,112.25,160.57z M113.85,158.46h-1.11v-0.38h1.53v2.45h-0.42V158.46z"/>
		<path class="st4" d="M117.01,157.3c-0.32,0.01-0.6,0.1-0.84,0.27c-0.24,0.17-0.41,0.4-0.51,0.7v2.28h-0.48v-3.65h0.45v0.87
			c0.13-0.26,0.29-0.47,0.5-0.63c0.21-0.16,0.43-0.25,0.66-0.27c0.05-0.01,0.09-0.01,0.12-0.01c0.04,0,0.06,0,0.09,0.01V157.3z"/>
		<path class="st4" d="M119.1,160.61c-0.26,0-0.51-0.05-0.73-0.15c-0.22-0.1-0.41-0.24-0.58-0.41c-0.16-0.17-0.29-0.37-0.38-0.6
			c-0.09-0.23-0.13-0.47-0.13-0.72c0-0.26,0.04-0.5,0.13-0.73c0.09-0.23,0.22-0.43,0.38-0.6c0.16-0.17,0.36-0.31,0.58-0.41
			s0.47-0.15,0.73-0.15s0.5,0.05,0.72,0.15c0.22,0.1,0.41,0.24,0.58,0.41c0.16,0.18,0.29,0.38,0.38,0.6
			c0.09,0.23,0.13,0.47,0.13,0.73c0,0.25-0.04,0.49-0.13,0.72c-0.09,0.23-0.21,0.43-0.38,0.6c-0.16,0.18-0.35,0.31-0.58,0.41
			C119.61,160.56,119.37,160.61,119.1,160.61z M117.77,158.73c0,0.27,0.06,0.52,0.18,0.74c0.12,0.22,0.28,0.4,0.48,0.52
			c0.2,0.13,0.42,0.19,0.67,0.19c0.24,0,0.47-0.06,0.67-0.19c0.2-0.13,0.36-0.31,0.49-0.53c0.12-0.23,0.18-0.47,0.18-0.74
			c0-0.27-0.06-0.52-0.18-0.74s-0.28-0.4-0.49-0.53c-0.2-0.13-0.42-0.2-0.67-0.2c-0.24,0-0.47,0.07-0.66,0.2
			c-0.2,0.13-0.36,0.31-0.48,0.53C117.83,158.21,117.77,158.46,117.77,158.73z"/>
		<path class="st4" d="M126.21,156.89h0.47l-1.58,3.65h-0.42l-0.77-1.81l-0.76,1.81h-0.42l-1.58-3.65h0.46l1.34,3.16l0.67-1.65
			l-0.62-1.51h0.43l0.46,1.18l0.47-1.18h0.42l-0.61,1.51l0.67,1.65L126.21,156.89z"/>
		<path class="st4" d="M129.07,160.39c-0.04,0.01-0.1,0.04-0.18,0.08c-0.08,0.04-0.18,0.07-0.29,0.1c-0.11,0.03-0.23,0.04-0.37,0.04
			c-0.14,0-0.26-0.03-0.38-0.08c-0.12-0.05-0.21-0.13-0.28-0.24c-0.07-0.11-0.11-0.24-0.11-0.39v-2.63h-0.51v-0.38h0.51v-1.24h0.48
			v1.24h0.84v0.38h-0.84v2.5c0.01,0.13,0.06,0.23,0.14,0.3c0.09,0.07,0.19,0.1,0.3,0.1c0.13,0,0.25-0.02,0.36-0.07
			c0.11-0.04,0.17-0.08,0.2-0.09L129.07,160.39z"/>
		<path class="st4" d="M132.75,160.54h-0.48v-2.03c0-0.41-0.07-0.72-0.22-0.93c-0.15-0.21-0.35-0.31-0.63-0.31
			c-0.18,0-0.35,0.05-0.53,0.14c-0.18,0.09-0.33,0.21-0.46,0.37c-0.13,0.15-0.23,0.33-0.29,0.53v2.23h-0.48v-5.13h0.48v2.32
			c0.15-0.27,0.35-0.49,0.61-0.65c0.26-0.16,0.54-0.24,0.83-0.24c0.21,0,0.39,0.04,0.54,0.11c0.15,0.07,0.27,0.18,0.36,0.32
			c0.09,0.14,0.16,0.31,0.2,0.5c0.04,0.19,0.06,0.4,0.06,0.64V160.54z"/>
		<path class="st4" d="M139,155.98h-1.78v4.56h-0.49v-4.56h-1.78v-0.44H139V155.98z"/>
		<path class="st4" d="M142.73,160.54h-0.48v-2.03c0-0.41-0.07-0.72-0.22-0.93c-0.15-0.21-0.35-0.31-0.63-0.31
			c-0.18,0-0.35,0.05-0.53,0.14c-0.18,0.09-0.33,0.21-0.46,0.37c-0.13,0.15-0.23,0.33-0.28,0.53v2.23h-0.48v-5.13h0.48v2.32
			c0.15-0.27,0.35-0.49,0.61-0.65c0.26-0.16,0.54-0.24,0.83-0.24c0.21,0,0.39,0.04,0.54,0.11c0.15,0.07,0.27,0.18,0.36,0.32
			c0.09,0.14,0.16,0.31,0.2,0.5c0.04,0.19,0.06,0.4,0.06,0.64V160.54z"/>
		<path class="st4" d="M145.58,157.3c-0.32,0.01-0.6,0.1-0.84,0.27c-0.24,0.17-0.41,0.4-0.51,0.7v2.28h-0.48v-3.65h0.45v0.87
			c0.13-0.26,0.29-0.47,0.5-0.63c0.21-0.16,0.43-0.25,0.66-0.27c0.05-0.01,0.09-0.01,0.12-0.01c0.04,0,0.06,0,0.09,0.01V157.3z"/>
		<path class="st4" d="M147.67,160.61c-0.26,0-0.51-0.05-0.73-0.15c-0.22-0.1-0.41-0.24-0.58-0.41c-0.16-0.17-0.29-0.37-0.38-0.6
			c-0.09-0.23-0.13-0.47-0.13-0.72c0-0.26,0.04-0.5,0.13-0.73c0.09-0.23,0.22-0.43,0.38-0.6c0.16-0.17,0.36-0.31,0.58-0.41
			s0.47-0.15,0.73-0.15s0.5,0.05,0.72,0.15c0.22,0.1,0.41,0.24,0.58,0.41c0.16,0.18,0.29,0.38,0.38,0.6
			c0.09,0.23,0.13,0.47,0.13,0.73c0,0.25-0.04,0.49-0.13,0.72c-0.09,0.23-0.21,0.43-0.38,0.6c-0.16,0.18-0.35,0.31-0.58,0.41
			C148.18,160.56,147.93,160.61,147.67,160.61z M146.34,158.73c0,0.27,0.06,0.52,0.18,0.74c0.12,0.22,0.28,0.4,0.48,0.52
			c0.2,0.13,0.42,0.19,0.67,0.19c0.24,0,0.47-0.06,0.67-0.19c0.2-0.13,0.36-0.31,0.49-0.53c0.12-0.23,0.18-0.47,0.18-0.74
			c0-0.27-0.06-0.52-0.18-0.74s-0.28-0.4-0.49-0.53c-0.2-0.13-0.42-0.2-0.67-0.2c-0.24,0-0.47,0.07-0.66,0.2
			c-0.2,0.13-0.36,0.31-0.48,0.53C146.4,158.21,146.34,158.46,146.34,158.73z"/>
		<path class="st4" d="M150.25,159.03v-2.14h0.48v2.06c0,0.42,0.07,0.73,0.21,0.93c0.14,0.2,0.35,0.31,0.64,0.31
			c0.19,0,0.37-0.04,0.54-0.12c0.18-0.08,0.33-0.2,0.47-0.35c0.14-0.15,0.24-0.33,0.31-0.53v-2.3h0.48v3.07
			c0,0.07,0.01,0.11,0.04,0.14c0.03,0.03,0.07,0.05,0.13,0.05v0.38c-0.06,0-0.1,0.01-0.13,0.01c-0.03,0-0.06,0-0.09,0
			c-0.09-0.01-0.17-0.05-0.24-0.11c-0.07-0.06-0.1-0.14-0.11-0.24l-0.01-0.49c-0.16,0.28-0.38,0.5-0.65,0.66
			c-0.27,0.16-0.57,0.24-0.89,0.24c-0.38,0-0.67-0.13-0.87-0.4C150.35,159.94,150.25,159.55,150.25,159.03z"/>
		<path class="st4" d="M155.94,160.61c-0.25,0-0.48-0.05-0.69-0.15c-0.21-0.1-0.39-0.24-0.54-0.42c-0.15-0.18-0.27-0.38-0.36-0.6
			c-0.08-0.22-0.13-0.46-0.13-0.7c0-0.26,0.04-0.5,0.12-0.73s0.2-0.43,0.35-0.61c0.15-0.18,0.33-0.32,0.54-0.42
			c0.21-0.1,0.44-0.15,0.69-0.15c0.31,0,0.59,0.08,0.82,0.24c0.23,0.16,0.43,0.35,0.59,0.59v-0.77h0.43v3.67
			c0,0.34-0.08,0.62-0.24,0.85c-0.16,0.23-0.38,0.41-0.65,0.52c-0.27,0.12-0.57,0.18-0.9,0.18c-0.42,0-0.75-0.08-1.01-0.23
			c-0.26-0.15-0.47-0.35-0.63-0.6l0.3-0.23c0.15,0.23,0.34,0.4,0.58,0.51c0.24,0.11,0.5,0.17,0.77,0.17c0.24,0,0.46-0.04,0.66-0.13
			c0.2-0.08,0.36-0.21,0.48-0.38c0.12-0.17,0.18-0.39,0.18-0.64v-0.72c-0.14,0.23-0.33,0.41-0.58,0.55
			C156.46,160.54,156.2,160.61,155.94,160.61z M156.07,160.21c0.15,0,0.29-0.03,0.42-0.08c0.13-0.05,0.26-0.12,0.37-0.21
			c0.11-0.09,0.21-0.18,0.28-0.29c0.08-0.11,0.12-0.22,0.14-0.33v-1.13c-0.07-0.18-0.17-0.34-0.3-0.47
			c-0.13-0.14-0.28-0.25-0.45-0.32c-0.17-0.08-0.34-0.12-0.52-0.12c-0.21,0-0.39,0.04-0.55,0.13s-0.3,0.2-0.41,0.35
			c-0.11,0.14-0.2,0.3-0.26,0.48c-0.06,0.18-0.09,0.36-0.09,0.53c0,0.2,0.03,0.38,0.11,0.56c0.07,0.18,0.17,0.33,0.29,0.47
			c0.12,0.14,0.27,0.25,0.44,0.32C155.7,160.17,155.88,160.21,156.07,160.21z"/>
		<path class="st4" d="M161.89,160.54h-0.48v-2.03c0-0.41-0.07-0.72-0.22-0.93c-0.15-0.21-0.35-0.31-0.63-0.31
			c-0.18,0-0.35,0.05-0.53,0.14c-0.18,0.09-0.33,0.21-0.46,0.37c-0.13,0.15-0.23,0.33-0.29,0.53v2.23h-0.48v-5.13h0.48v2.32
			c0.15-0.27,0.35-0.49,0.61-0.65c0.26-0.16,0.54-0.24,0.83-0.24c0.21,0,0.39,0.04,0.54,0.11c0.15,0.07,0.27,0.18,0.36,0.32
			c0.09,0.14,0.16,0.31,0.2,0.5c0.04,0.19,0.06,0.4,0.06,0.64V160.54z"/>
		<path class="st4" d="M168.16,160.1v0.44h-3.35v-4.99h3.29v0.44h-2.8v1.8h2.44v0.42h-2.44v1.91H168.16z"/>
		<path class="st4" d="M169.1,156.89l1.08,1.43l0.06,0.11l0.06-0.11l1.07-1.43h0.54l-1.39,1.84l1.39,1.81h-0.54l-1.07-1.42
			l-0.06-0.1l-0.06,0.1l-1.07,1.42h-0.54l1.39-1.81l-1.39-1.84H169.1z"/>
		<path class="st4" d="M174.4,160.61c-0.3,0-0.58-0.08-0.82-0.24c-0.24-0.16-0.43-0.35-0.57-0.59v2.25h-0.48v-5.15h0.43v0.71
			c0.15-0.23,0.34-0.41,0.58-0.56c0.24-0.14,0.5-0.21,0.78-0.21c0.25,0,0.49,0.05,0.7,0.16c0.21,0.11,0.39,0.25,0.55,0.42
			s0.28,0.38,0.36,0.6c0.09,0.23,0.13,0.46,0.13,0.7c0,0.34-0.07,0.65-0.21,0.94c-0.14,0.29-0.33,0.52-0.58,0.69
			C175.03,160.52,174.73,160.61,174.4,160.61z M174.27,160.19c0.2,0,0.38-0.04,0.54-0.12c0.16-0.08,0.3-0.19,0.41-0.33
			c0.12-0.14,0.2-0.3,0.26-0.47c0.06-0.17,0.09-0.35,0.09-0.54c0-0.19-0.03-0.38-0.1-0.56c-0.07-0.18-0.17-0.33-0.29-0.47
			c-0.13-0.13-0.27-0.24-0.44-0.32c-0.16-0.08-0.34-0.12-0.53-0.12c-0.12,0-0.25,0.02-0.38,0.07c-0.13,0.05-0.26,0.11-0.38,0.2
			c-0.12,0.09-0.22,0.18-0.3,0.29c-0.08,0.11-0.13,0.22-0.15,0.34v1.12c0.07,0.17,0.18,0.33,0.3,0.46s0.27,0.25,0.44,0.33
			C173.92,160.15,174.09,160.19,174.27,160.19z"/>
		<path class="st4" d="M178.45,160.61c-0.26,0-0.51-0.05-0.73-0.15c-0.22-0.1-0.42-0.24-0.58-0.41c-0.16-0.18-0.29-0.38-0.38-0.61
			c-0.09-0.23-0.14-0.47-0.14-0.74c0-0.34,0.08-0.65,0.24-0.93c0.16-0.28,0.37-0.51,0.65-0.68s0.59-0.25,0.94-0.25
			c0.36,0,0.68,0.09,0.95,0.26c0.27,0.17,0.48,0.4,0.64,0.68c0.15,0.28,0.23,0.59,0.23,0.92c0,0.04,0,0.07,0,0.11
			c0,0.04,0,0.06-0.01,0.08h-3.14c0.02,0.26,0.1,0.49,0.22,0.7c0.12,0.2,0.29,0.36,0.49,0.48c0.2,0.12,0.42,0.18,0.65,0.18
			c0.24,0,0.47-0.06,0.68-0.18c0.21-0.12,0.36-0.28,0.45-0.48l0.41,0.11c-0.07,0.17-0.19,0.33-0.34,0.47s-0.34,0.25-0.55,0.33
			C178.92,160.57,178.69,160.61,178.45,160.61z M177.1,158.54h2.71c-0.02-0.26-0.09-0.5-0.22-0.69c-0.12-0.2-0.29-0.36-0.49-0.47
			c-0.2-0.11-0.42-0.17-0.66-0.17c-0.24,0-0.46,0.06-0.65,0.17c-0.2,0.11-0.36,0.27-0.48,0.47
			C177.19,158.05,177.12,158.28,177.1,158.54z"/>
		<path class="st4" d="M182.83,157.3c-0.32,0.01-0.6,0.1-0.84,0.27c-0.24,0.17-0.41,0.4-0.51,0.7v2.28H181v-3.65h0.45v0.87
			c0.13-0.26,0.29-0.47,0.5-0.63c0.21-0.16,0.43-0.25,0.66-0.27c0.05-0.01,0.09-0.01,0.12-0.01c0.04,0,0.06,0,0.09,0.01V157.3z"/>
		<path class="st4" d="M185.22,160.39c-0.04,0.01-0.1,0.04-0.18,0.08c-0.08,0.04-0.18,0.07-0.29,0.1c-0.11,0.03-0.24,0.04-0.37,0.04
			c-0.14,0-0.26-0.03-0.38-0.08c-0.12-0.05-0.22-0.13-0.29-0.24c-0.07-0.11-0.11-0.24-0.11-0.39v-2.63h-0.51v-0.38h0.51v-1.24h0.48
			v1.24h0.84v0.38h-0.84v2.5c0.01,0.13,0.06,0.23,0.14,0.3c0.09,0.07,0.19,0.1,0.3,0.1c0.13,0,0.25-0.02,0.36-0.07
			c0.11-0.04,0.17-0.08,0.2-0.09L185.22,160.39z"/>
		<path class="st4" d="M185.82,156.11v-0.7h0.48v0.7H185.82z M185.82,160.54v-3.66h0.48v3.66H185.82z"/>
		<path class="st4" d="M188.56,160.61c-0.3,0-0.58-0.05-0.84-0.15c-0.26-0.1-0.48-0.25-0.67-0.45l0.2-0.34
			c0.21,0.19,0.41,0.33,0.62,0.42c0.21,0.09,0.43,0.13,0.66,0.13c0.29,0,0.52-0.06,0.7-0.17c0.18-0.11,0.27-0.28,0.27-0.49
			c0-0.15-0.04-0.26-0.13-0.33c-0.09-0.08-0.21-0.14-0.37-0.19c-0.16-0.05-0.35-0.1-0.58-0.16c-0.25-0.07-0.47-0.14-0.64-0.22
			c-0.17-0.08-0.3-0.18-0.39-0.29c-0.09-0.12-0.13-0.27-0.13-0.47c0-0.24,0.06-0.43,0.18-0.59c0.12-0.16,0.28-0.28,0.49-0.36
			c0.21-0.08,0.44-0.12,0.7-0.12c0.28,0,0.53,0.05,0.75,0.13c0.22,0.09,0.39,0.21,0.53,0.37l-0.23,0.32
			c-0.13-0.15-0.29-0.26-0.47-0.33c-0.18-0.07-0.38-0.11-0.6-0.11c-0.15,0-0.29,0.02-0.43,0.06s-0.25,0.1-0.33,0.2
			c-0.09,0.09-0.13,0.22-0.13,0.37c0,0.13,0.03,0.23,0.1,0.3c0.07,0.07,0.16,0.13,0.3,0.18c0.13,0.05,0.29,0.1,0.49,0.16
			c0.28,0.07,0.52,0.15,0.72,0.23c0.21,0.08,0.36,0.18,0.48,0.3c0.11,0.12,0.17,0.29,0.17,0.51c0,0.34-0.13,0.61-0.39,0.8
			C189.32,160.51,188.98,160.61,188.56,160.61z"/>
		<path class="st4" d="M192.33,160.61c-0.26,0-0.51-0.05-0.73-0.15c-0.22-0.1-0.42-0.24-0.58-0.41c-0.16-0.18-0.29-0.38-0.38-0.61
			c-0.09-0.23-0.14-0.47-0.14-0.74c0-0.34,0.08-0.65,0.24-0.93c0.16-0.28,0.37-0.51,0.65-0.68c0.28-0.17,0.59-0.25,0.94-0.25
			c0.36,0,0.68,0.09,0.95,0.26c0.27,0.17,0.48,0.4,0.64,0.68c0.15,0.28,0.23,0.59,0.23,0.92c0,0.04,0,0.07,0,0.11
			c0,0.04,0,0.06-0.01,0.08H191c0.02,0.26,0.1,0.49,0.22,0.7c0.12,0.2,0.29,0.36,0.49,0.48c0.2,0.12,0.42,0.18,0.65,0.18
			c0.24,0,0.47-0.06,0.68-0.18c0.21-0.12,0.36-0.28,0.45-0.48l0.41,0.11c-0.07,0.17-0.19,0.33-0.34,0.47s-0.34,0.25-0.55,0.33
			C192.8,160.57,192.57,160.61,192.33,160.61z M190.98,158.54h2.71c-0.02-0.26-0.09-0.5-0.22-0.69c-0.12-0.2-0.29-0.36-0.49-0.47
			c-0.2-0.11-0.42-0.17-0.66-0.17c-0.24,0-0.46,0.06-0.65,0.17c-0.2,0.11-0.36,0.27-0.48,0.47
			C191.07,158.05,191,158.28,190.98,158.54z"/>
	</g>
</g>
</svg>
